HIERARCHY
ROOT joint_Root
{
	OFFSET 0.0 0.0 0.0
	CHANNELS 6 Xposition Yposition Zposition Zrotation Xrotation Yrotation 
	JOINT Hips
	{
		OFFSET -0.726466 93.3139 -2.00062
		CHANNELS 6 Xposition Yposition Zposition Zrotation Xrotation Yrotation 
		JOINT Spine
		{
			OFFSET 15.7357 0.0 0.0
			CHANNELS 6 Xposition Yposition Zposition Zrotation Xrotation Yrotation 
			JOINT Chest
			{
				OFFSET 8.98455 -0.406207 0.0
				CHANNELS 6 Xposition Yposition Zposition Zrotation Xrotation Yrotation 
				JOINT Neck
				{
					OFFSET 16.3773 0.0 0.0
					CHANNELS 6 Xposition Yposition Zposition Zrotation Xrotation Yrotation 
					JOINT Head
					{
						OFFSET 6.45672 0.0 0.0
						CHANNELS 6 Xposition Yposition Zposition Zrotation Xrotation Yrotation 
						End Site
						{
							OFFSET 0.0 0.0 0.0
						}
					}
				}
				JOINT Shoulder_L
				{
					OFFSET 12.9942 -0.242716 4.98039
					CHANNELS 6 Xposition Yposition Zposition Zrotation Xrotation Yrotation 
					JOINT UpperArm_L
					{
						OFFSET 5.34809 0.0 0.0
						CHANNELS 6 Xposition Yposition Zposition Zrotation Xrotation Yrotation 
						JOINT LowerArm_L
						{
							OFFSET 24.3286 1.87007e-05 0.0
							CHANNELS 6 Xposition Yposition Zposition Zrotation Xrotation Yrotation 
							JOINT Hand_L
							{
								OFFSET 22.2916 0.0 0.0
								CHANNELS 6 Xposition Yposition Zposition Zrotation Xrotation Yrotation 
								End Site
								{
									OFFSET 0.0 0.0 0.0
								}
							}
						}
					}
				}
				JOINT Shoulder_R
				{
					OFFSET 12.9945 -0.242716 -4.98039
					CHANNELS 6 Xposition Yposition Zposition Zrotation Xrotation Yrotation 
					JOINT UpperArm_R
					{
						OFFSET -5.34813 0.0 0.0
						CHANNELS 6 Xposition Yposition Zposition Zrotation Xrotation Yrotation 
						JOINT LowerArm_R
						{
							OFFSET -24.3289 0.000322201 0.0
							CHANNELS 6 Xposition Yposition Zposition Zrotation Xrotation Yrotation 
							JOINT Hand_R
							{
								OFFSET -22.2915 -0.000108084 0.0
								CHANNELS 6 Xposition Yposition Zposition Zrotation Xrotation Yrotation 
								End Site
								{
									OFFSET 0.0 0.0 0.0
								}
							}
						}
					}
				}
			}
		}
		JOINT UpperLeg_L
		{
			OFFSET -2.19248 -6.46944 0.0
			CHANNELS 6 Xposition Yposition Zposition Zrotation Xrotation Yrotation 
			JOINT LowerLeg_L
			{
				OFFSET 39.0811 0.0 -1.23785e-05
				CHANNELS 6 Xposition Yposition Zposition Zrotation Xrotation Yrotation 
				JOINT Foot_L
				{
					OFFSET 40.9854 0.0 -1.26872e-05
					CHANNELS 6 Xposition Yposition Zposition Zrotation Xrotation Yrotation 
					JOINT Toes_L
					{
						OFFSET 11.7543 0.0 0.0
						CHANNELS 6 Xposition Yposition Zposition Zrotation Xrotation Yrotation 
						End Site
						{
							OFFSET 0.0 0.0 0.0
						}
					}
				}
			}
		}
		JOINT UpperLeg_R
		{
			OFFSET -2.19251 6.46944 0.0
			CHANNELS 6 Xposition Yposition Zposition Zrotation Xrotation Yrotation 
			JOINT LowerLeg_R
			{
				OFFSET -39.0811 -0.00228153 -0.0401928
				CHANNELS 6 Xposition Yposition Zposition Zrotation Xrotation Yrotation 
				JOINT Foot_R
				{
					OFFSET -40.9854 0.0 0.0
					CHANNELS 6 Xposition Yposition Zposition Zrotation Xrotation Yrotation 
					JOINT Toes_R
					{
						OFFSET -11.7543 0.0 0.0
						CHANNELS 6 Xposition Yposition Zposition Zrotation Xrotation Yrotation 
						End Site
						{
							OFFSET 0.0 0.0 0.0
						}
					}
				}
			}
		}
	}
}
MOTION
Frames:	6
Frame Time:	0.0333333
0.000000 0.000000 0.000000 0.000000 0.000000 -0.000000 -1.386330 92.158400 -2.576350 87.524300 -0.015984 2.698740 15.735700 0.000005 -0.000001 84.841100 85.553100 -84.698100 8.984550 -0.406207 -0.000000 1.092930 -0.807697 0.293341 16.377300 -0.000001 -0.000001 1.288310 -1.730400 -0.881190 6.456720 -0.000001 -0.000000 0.211719 -0.824167 4.904410 12.994200 -0.242716 4.980390 -89.613000 -1.180830 -71.853900 5.348090 -0.000007 -0.000001 -68.280000 35.817800 -13.940200 24.328600 0.000019 0.000005 2.853490 6.284180 -24.482100 22.291600 -0.000001 0.000005 5.959720 5.541860 -8.325150 12.994500 -0.242716 -4.980390 87.646200 6.644720 -70.443200 -5.348130 -0.000001 -0.000004 -67.241500 36.687800 -13.678100 -24.328900 0.000322 -0.000009 -0.078582 -0.169876 -24.522200 -22.291500 -0.000108 -0.000004 13.898400 5.506580 -6.802000 -2.192480 -6.469440 -0.000000 -168.182000 -16.082700 -4.052610 39.081100 -0.000007 -0.000012 -0.175588 0.467197 20.598100 40.985400 -0.000006 -0.000013 -6.736770 3.398710 -61.752600 11.754300 -0.000000 0.000003 -0.000153 -0.001478 -16.633700 -2.192510 6.469440 -0.000001 174.848000 21.540500 178.286000 -39.081100 -0.002282 -0.040193 -0.057234 0.179515 18.641500 -40.985400 0.000008 0.000006 -3.802040 3.788140 -62.101500 -11.754300 -0.000006 -0.000006 -0.005019 -0.061644 -19.081300
0.000000 0.000000 0.000000 0.000000 0.000000 -0.000000 -1.403440 92.165600 -2.625530 87.503200 0.020970 2.667850 15.735700 0.000005 -0.000001 84.739800 85.557700 -84.614800 8.984550 -0.406207 -0.000000 1.082190 -0.821480 0.257537 16.377300 -0.000001 -0.000001 1.177230 -1.746270 -0.858504 6.456720 -0.000001 -0.000000 0.059544 -0.956261 5.004390 12.994200 -0.242716 4.980390 -89.600600 -1.200780 -71.597900 5.348090 -0.000007 -0.000001 -68.154700 32.967300 -13.733500 24.328600 0.000019 0.000005 3.294280 7.149270 -24.819800 22.291600 -0.000001 0.000005 7.332990 5.549000 -8.657470 12.994500 -0.242716 -4.980390 87.708700 6.455530 -70.410600 -5.348130 -0.000001 -0.000004 -67.821700 34.415800 -13.484600 -24.328900 0.000322 -0.000009 -0.158329 -0.358518 -23.688800 -22.291500 -0.000108 -0.000004 15.929300 5.507810 -6.854460 -2.192480 -6.469440 -0.000000 -168.178000 -16.078700 -4.128820 39.081100 -0.000007 -0.000012 -0.174964 0.465955 20.581200 40.985400 -0.000006 -0.000013 -6.731090 3.409640 -61.697000 11.754300 -0.000000 0.000003 -0.000164 -0.001565 -16.636900 -2.192510 6.469440 -0.000001 174.917000 21.549000 178.234000 -39.081100 -0.002282 -0.040193 -0.053837 0.169626 18.622900 -40.985400 0.000008 0.000006 -3.725540 3.759960 -62.080500 -11.754300 -0.000006 -0.000006 -0.005290 -0.064240 -19.187100
0.000000 0.000000 0.000000 0.000000 0.000000 -0.000000 -1.423890 92.177300 -2.678500 87.489600 0.061409 2.643650 15.735700 0.000005 -0.000001 84.987900 85.567200 -84.881700 8.984550 -0.406207 -0.000000 1.066520 -0.780439 0.219606 16.377300 -0.000001 -0.000001 1.003870 -1.773340 -0.863924 6.456720 -0.000001 -0.000000 -0.069482 -1.128860 5.107620 12.994200 -0.242716 4.980390 -89.572000 -1.272600 -71.408900 5.348090 -0.000007 -0.000001 -67.338000 29.234900 -14.000200 24.328600 0.000019 0.000005 3.184450 6.963020 -24.651700 22.291600 -0.000001 0.000005 8.471210 5.547450 -8.586820 12.994500 -0.242716 -4.980390 87.783300 6.204680 -70.295400 -5.348130 -0.000001 -0.000004 -68.093700 30.813100 -13.553300 -24.328900 0.000322 -0.000009 -0.332457 -0.805437 -22.373200 -22.291500 -0.000108 -0.000004 16.269700 5.495810 -6.364390 -2.192480 -6.469440 -0.000000 -168.194000 -16.071400 -4.190650 39.081100 -0.000007 -0.000012 -0.170244 0.454335 20.541700 40.985400 -0.000006 -0.000013 -6.724920 3.364000 -61.628500 11.754300 -0.000000 0.000003 -0.000133 -0.001311 -16.627500 -2.192510 6.469440 -0.000001 174.976000 21.572500 178.196000 -39.081100 -0.002282 -0.040193 -0.051913 0.164450 18.566800 -40.985400 0.000008 0.000006 -3.694390 3.723480 -62.024900 -11.754300 -0.000006 -0.000006 -0.005011 -0.061571 -19.078300
0.000000 0.000000 0.000000 0.000000 0.000000 -0.000000 -1.434980 92.185900 -2.760180 87.461500 0.177096 2.551690 15.735700 0.000005 -0.000001 84.744700 85.619200 -84.656500 8.984550 -0.406207 -0.000000 0.959567 -0.807438 0.182971 16.377300 -0.000001 -0.000001 0.842847 -1.766850 -0.894741 6.456720 -0.000001 -0.000000 -0.200958 -1.230620 5.247400 12.994200 -0.242716 4.980390 -89.529200 -1.384500 -71.217200 5.348090 -0.000007 -0.000001 -65.581700 24.766700 -14.821100 24.328600 0.000019 0.000005 2.837310 6.372760 -24.061000 22.291600 -0.000001 0.000005 8.898310 5.543940 -8.424090 12.994500 -0.242716 -4.980390 87.851100 6.004610 -70.267500 -5.348130 -0.000001 -0.000004 -67.360500 26.702300 -14.032400 -24.328900 0.000322 -0.000009 -0.537216 -1.406650 -20.869200 -22.291500 -0.000108 -0.000004 15.788200 5.481660 -5.811180 -2.192480 -6.469440 -0.000000 -168.201000 -15.929400 -4.350760 39.081100 -0.000007 -0.000012 -0.170380 0.455700 20.500300 40.985400 -0.000006 -0.000013 -6.730890 3.385670 -61.552600 11.754300 -0.000000 0.000003 -0.000126 -0.001249 -16.625200 -2.192510 6.469440 -0.000001 175.079000 21.644200 178.050000 -39.081100 -0.002282 -0.040193 -0.049513 0.157347 18.562100 -40.985400 0.000008 0.000006 -3.571600 3.664830 -61.991700 -11.754300 -0.000006 -0.000006 -0.005303 -0.064365 -19.192200
0.000000 0.000000 0.000000 0.000000 0.000000 -0.000000 -1.435620 92.192900 -2.827890 87.467100 0.205699 2.582130 15.735700 0.000005 -0.000001 85.028000 85.633600 -84.968300 8.984550 -0.406207 -0.000000 0.934387 -0.760127 0.125412 16.377300 -0.000001 -0.000001 0.624655 -1.708230 -0.889150 6.456720 -0.000001 -0.000000 -0.422493 -1.291100 5.319820 12.994200 -0.242716 4.980390 -89.439800 -1.643900 -71.179000 5.348090 -0.000007 -0.000001 -63.383200 19.253600 -15.928500 24.328600 0.000019 0.000005 2.656830 6.190250 -23.282800 22.291600 -0.000001 0.000005 9.693730 5.544370 -8.442730 12.994500 -0.242716 -4.980390 87.924500 5.797780 -70.264600 -5.348130 -0.000001 -0.000004 -65.351000 22.527000 -15.215500 -24.328900 0.000322 -0.000009 -0.338401 -0.970903 -19.145600 -22.291500 -0.000108 -0.000004 15.643300 5.467040 -5.260550 -2.192480 -6.469440 -0.000000 -168.216000 -15.957000 -4.378410 39.081100 -0.000007 -0.000012 -0.169468 0.453672 20.483300 40.985400 -0.000006 -0.000013 -6.707680 3.418000 -61.480100 11.754300 -0.000000 0.000003 -0.000135 -0.001325 -16.628100 -2.192510 6.469440 -0.000001 175.094000 21.658600 178.023000 -39.081100 -0.002282 -0.040193 -0.047983 0.152662 18.576800 -40.985400 0.000008 0.000006 -3.509690 3.622700 -61.960300 -11.754300 -0.000006 -0.000006 -0.005475 -0.065993 -19.258500
0.000000 0.000000 0.000000 0.000000 0.000000 -0.000000 -1.438820 92.203700 -2.913240 87.464100 0.224370 2.537030 15.735700 0.000005 -0.000001 84.922700 85.680500 -84.875800 8.984550 -0.406207 -0.000000 0.839426 -0.767089 0.099281 16.377300 -0.000001 -0.000001 0.299150 -1.562370 -0.875578 6.456720 -0.000001 -0.000000 -0.636720 -1.213840 5.354530 12.994200 -0.242716 4.980390 -89.316600 -1.992750 -71.065200 5.348090 -0.000007 -0.000001 -60.783900 12.997600 -17.301700 24.328600 0.000019 0.000005 2.375990 5.781110 -22.387300 22.291600 -0.000001 0.000005 10.735700 5.547680 -8.596410 12.994500 -0.242716 -4.980390 88.007100 5.576410 -70.298000 -5.348130 -0.000001 -0.000004 -62.483400 17.614500 -16.894600 -24.328900 0.000322 -0.000009 -0.257673 -0.821118 -17.361000 -22.291500 -0.000108 -0.000004 16.189400 5.450630 -4.664590 -2.192480 -6.469440 -0.000000 -168.234000 -15.935200 -4.460900 39.081100 -0.000007 -0.000012 -0.170834 0.458901 20.418900 40.985400 -0.000006 -0.000013 -6.705940 3.418740 -61.388300 11.754300 -0.000000 0.000003 -0.000142 -0.001383 -16.630200 -2.192510 6.469440 -0.000001 175.147000 21.703900 177.911000 -39.081100 -0.002282 -0.040193 -0.045839 0.146347 18.569200 -40.985400 0.000008 0.000006 -3.417830 3.620100 -61.903000 -11.754300 -0.000006 -0.000006 -0.005225 -0.063624 -19.162000
